<svg xmlns="http://www.w3.org/2000/svg" xmlns:xlink="http://www.w3.org/1999/xlink" width="500" zoomAndPan="magnify" viewBox="0 0 375 374.999991" height="500" preserveAspectRatio="xMidYMid meet" version="1.0"><defs><g/><clipPath id="f1593b1553"><path d="M 22.929688 156.71875 L 69.757812 156.71875 L 69.757812 203.550781 L 22.929688 203.550781 Z M 22.929688 156.71875 " clip-rule="nonzero"/></clipPath><clipPath id="7f7d1a37fc"><path d="M 46.34375 156.71875 C 33.410156 156.71875 22.929688 167.203125 22.929688 180.136719 C 22.929688 193.066406 33.410156 203.550781 46.34375 203.550781 C 59.273438 203.550781 69.757812 193.066406 69.757812 180.136719 C 69.757812 167.203125 59.273438 156.71875 46.34375 156.71875 Z M 46.34375 156.71875 " clip-rule="nonzero"/></clipPath></defs><g fill="#ffa434" fill-opacity="1"><g transform="translate(88.208496, 195.493509)"><g><path d="M -4.59375 15.890625 L -6.03125 11.546875 C -2.800781 12.640625 -0.0234375 13.1875 2.296875 13.1875 C 4.304688 13.1875 5.878906 12.816406 7.015625 12.078125 C 8.160156 11.335938 8.992188 10.320312 9.515625 9.03125 C 10.046875 7.738281 10.375 6.300781 10.5 4.71875 C 10.632812 3.144531 10.703125 1.550781 10.703125 -0.0625 L 10.703125 -34.59375 C 10.703125 -36.5625 10.21875 -38.363281 9.25 -40 C 8.289062 -41.644531 7 -42.945312 5.375 -43.90625 C 3.757812 -44.875 1.96875 -45.359375 0 -45.359375 L -0.328125 -45.359375 L -0.328125 -46.015625 L 4 -46.015625 C 6.019531 -46.015625 7.835938 -45.53125 9.453125 -44.5625 C 11.066406 -43.601562 12.351562 -42.3125 13.3125 -40.6875 C 14.28125 -39.070312 14.765625 -37.28125 14.765625 -35.3125 L 14.765625 -0.125 C 14.765625 2.84375 14.039062 5.539062 12.59375 7.96875 C 11.15625 10.40625 9.003906 12.332031 6.140625 13.75 C 3.273438 15.175781 -0.300781 15.890625 -4.59375 15.890625 Z M -4.59375 15.890625 "/></g></g></g><g fill="#ffa434" fill-opacity="1"><g transform="translate(108.753301, 195.493509)"><g><path d="M -0.328125 -45.8125 L 3.8125 -45.8125 C 5.738281 -45.8125 7.222656 -45.003906 8.265625 -43.390625 L 23.046875 -20.8125 C 23.484375 -21.425781 23.90625 -22.070312 24.3125 -22.75 C 24.726562 -23.425781 25.179688 -24.132812 25.671875 -24.875 C 26.492188 -26.144531 27.410156 -27.546875 28.421875 -29.078125 C 29.429688 -30.609375 30.4375 -32.1875 31.4375 -33.8125 C 32.53125 -35.382812 33.175781 -36.597656 33.375 -37.453125 C 33.570312 -38.304688 33.671875 -38.992188 33.671875 -39.515625 C 33.671875 -39.597656 33.660156 -39.726562 33.640625 -39.90625 C 33.617188 -40.082031 33.585938 -40.28125 33.546875 -40.5 C 33.328125 -41.375 32.953125 -42.007812 32.421875 -42.40625 L 35.375 -45.953125 C 36.03125 -45.640625 36.515625 -45.09375 36.828125 -44.3125 C 36.953125 -44 37.015625 -43.582031 37.015625 -43.0625 C 37.015625 -42.707031 36.945312 -42.144531 36.8125 -41.375 C 36.6875 -40.613281 36.097656 -39.40625 35.046875 -37.75 L 23.5 -20.09375 L 23.5625 0 L 19.421875 0 L 19.421875 -19.03125 C 18.984375 -19.644531 18.554688 -20.289062 18.140625 -20.96875 C 17.734375 -21.644531 17.285156 -22.359375 16.796875 -23.109375 C 16.054688 -24.328125 15.179688 -25.710938 14.171875 -27.265625 C 13.171875 -28.828125 12.125 -30.4375 11.03125 -32.09375 L 4.140625 -42.734375 C 3.128906 -44.304688 1.640625 -45.09375 -0.328125 -45.09375 Z M -0.328125 -45.8125 "/></g></g></g><g fill="#ffa434" fill-opacity="1"><g transform="translate(148.267098, 195.493509)"><g><path d="M 3.875 -13.65625 C 2.425781 -16.539062 1.703125 -19.625 1.703125 -22.90625 C 1.703125 -26.1875 2.398438 -29.269531 3.796875 -32.15625 C 5.203125 -35.050781 7.140625 -37.582031 9.609375 -39.75 C 12.085938 -41.914062 14.957031 -43.617188 18.21875 -44.859375 C 21.476562 -46.109375 24.96875 -46.734375 28.6875 -46.734375 C 32.40625 -46.734375 35.894531 -46.109375 39.15625 -44.859375 C 42.414062 -43.617188 45.28125 -41.914062 47.75 -39.75 C 50.226562 -37.582031 52.164062 -35.050781 53.5625 -32.15625 C 54.957031 -29.269531 55.65625 -26.1875 55.65625 -22.90625 C 55.65625 -19.625 54.957031 -16.550781 53.5625 -13.6875 C 52.164062 -10.820312 50.226562 -8.296875 47.75 -6.109375 C 45.28125 -3.921875 42.414062 -2.210938 39.15625 -0.984375 C 35.894531 0.242188 32.40625 0.859375 28.6875 0.859375 C 24.925781 0.859375 21.425781 0.242188 18.1875 -0.984375 C 14.945312 -2.210938 12.097656 -3.921875 9.640625 -6.109375 C 7.191406 -8.296875 5.269531 -10.8125 3.875 -13.65625 Z M 5.703125 -20.8125 C 5.703125 -20.414062 5.726562 -20.175781 5.78125 -20.09375 C 5.945312 -17.238281 6.617188 -14.507812 7.796875 -11.90625 C 8.984375 -9.3125 10.640625 -7.070312 12.765625 -5.1875 C 14.890625 -3.300781 17.441406 -1.96875 20.421875 -1.1875 C 21.460938 -0.914062 22.507812 -0.703125 23.5625 -0.546875 C 24.613281 -0.398438 25.6875 -0.328125 26.78125 -0.328125 C 30.195312 -0.328125 33.5 -0.992188 36.6875 -2.328125 C 39.882812 -3.660156 42.71875 -5.597656 45.1875 -8.140625 C 47.664062 -10.679688 49.472656 -13.722656 50.609375 -17.265625 C 51.398438 -19.710938 51.796875 -22.117188 51.796875 -24.484375 L 51.796875 -25.734375 C 51.796875 -26.515625 51.660156 -27.601562 51.390625 -29 C 51.128906 -30.40625 50.5625 -32.070312 49.6875 -34 C 48.507812 -36.539062 46.859375 -38.75 44.734375 -40.625 C 42.609375 -42.507812 40.035156 -43.847656 37.015625 -44.640625 C 35.179688 -45.203125 33.039062 -45.484375 30.59375 -45.484375 C 27.175781 -45.484375 23.878906 -44.828125 20.703125 -43.515625 C 17.535156 -42.203125 14.738281 -40.3125 12.3125 -37.84375 C 9.882812 -35.375 8.078125 -32.34375 6.890625 -28.75 C 6.097656 -26.34375 5.703125 -23.914062 5.703125 -21.46875 Z M 5.703125 -20.8125 "/></g></g></g><g fill="#ff5757" fill-opacity="1"><g transform="translate(207.810054, 195.493509)"><g><path d="M 0 -45.890625 L 36.4375 -45.890625 L 36.4375 -41.28125 C 34.550781 -42.6875 32.269531 -43.671875 29.59375 -44.234375 C 26.925781 -44.804688 23.820312 -45.132812 20.28125 -45.21875 L 20.28125 0 L 16.21875 0 L 16.21875 -45.21875 C 14.414062 -45.21875 12.539062 -45.109375 10.59375 -44.890625 C 8.65625 -44.671875 6.765625 -44.273438 4.921875 -43.703125 C 3.085938 -43.140625 1.445312 -42.332031 0 -41.28125 Z M 0 -45.890625 "/></g></g></g><g fill="#ff5757" fill-opacity="1"><g transform="translate(246.404948, 195.493509)"><g><path d="M 0.0625 0 L 21.734375 -46.078125 C 22.210938 -45.117188 22.863281 -43.796875 23.6875 -42.109375 C 24.519531 -40.421875 25.460938 -38.460938 26.515625 -36.234375 L 44.109375 0.0625 L 39.578125 0.0625 L 36.625 -6.171875 C 35.75 -8.140625 34.742188 -10.304688 33.609375 -12.671875 C 32.472656 -15.035156 31.3125 -17.484375 30.125 -20.015625 L 10.375 -20.015625 C 9.71875 -18.617188 9.003906 -17 8.234375 -15.15625 C 7.472656 -13.320312 6.785156 -11.460938 6.171875 -9.578125 C 5.554688 -7.742188 5.117188 -6.160156 4.859375 -4.828125 C 4.597656 -3.492188 4.46875 -2.453125 4.46875 -1.703125 C 4.46875 -1.085938 4.53125 -0.519531 4.65625 0 Z M 20.21875 -40.890625 L 10.703125 -20.75 L 29.734375 -20.75 Z M 20.21875 -40.890625 "/></g></g></g><g fill="#ff5757" fill-opacity="1"><g transform="translate(292.613698, 195.493509)"><g><path d="M -0.125 -45.8125 L 4.984375 -45.8125 C 7.003906 -45.8125 8.710938 -45.113281 10.109375 -43.71875 L 27.5 -26.390625 L 30.265625 -29.078125 C 31.140625 -29.910156 32.125 -30.851562 33.21875 -31.90625 C 34.3125 -32.957031 35.425781 -34.050781 36.5625 -35.1875 C 38.050781 -36.675781 38.914062 -37.867188 39.15625 -38.765625 C 39.394531 -39.660156 39.515625 -40.390625 39.515625 -40.953125 C 39.515625 -41.347656 39.492188 -41.566406 39.453125 -41.609375 C 39.410156 -42.046875 39.28125 -42.398438 39.0625 -42.671875 L 38.796875 -43 L 42.40625 -45.890625 C 43.019531 -45.273438 43.390625 -44.613281 43.515625 -43.90625 C 43.554688 -43.863281 43.578125 -43.671875 43.578125 -43.328125 C 43.578125 -42.796875 43.425781 -42.09375 43.125 -41.21875 C 42.820312 -40.34375 41.96875 -39.207031 40.5625 -37.8125 L 28.09375 -25.734375 L 53.953125 0 L 48.3125 0 L 25.015625 -23.171875 L 21.203125 -19.421875 C 20.066406 -18.285156 18.773438 -17.015625 17.328125 -15.609375 C 15.878906 -14.210938 14.390625 -12.773438 12.859375 -11.296875 C 11.546875 -9.890625 10.691406 -8.703125 10.296875 -7.734375 C 9.910156 -6.773438 9.71875 -5.96875 9.71875 -5.3125 L 9.71875 -5.125 C 9.757812 -4.332031 10.019531 -3.628906 10.5 -3.015625 L 7.03125 0 C 6.363281 -0.519531 5.945312 -1.132812 5.78125 -1.84375 C 5.726562 -1.882812 5.703125 -2.144531 5.703125 -2.625 C 5.703125 -3.144531 5.820312 -3.820312 6.0625 -4.65625 C 6.3125 -5.488281 7.070312 -6.628906 8.34375 -8.078125 L 24.421875 -23.703125 L 13.59375 -34.53125 C 12.5 -35.625 11.425781 -36.671875 10.375 -37.671875 C 9.320312 -38.679688 8.335938 -39.644531 7.421875 -40.5625 L 4.984375 -43 C 4.328125 -43.695312 3.550781 -44.21875 2.65625 -44.5625 C 1.757812 -44.914062 0.832031 -45.09375 -0.125 -45.09375 Z M -0.125 -45.8125 "/></g></g></g><g clip-path="url(#f1593b1553)"><g clip-path="url(#7f7d1a37fc)"><path fill="#ffa434" d="M 22.929688 156.71875 L 69.757812 156.71875 L 69.757812 203.550781 L 22.929688 203.550781 Z M 22.929688 156.71875 " fill-opacity="1" fill-rule="nonzero"/></g></g><path fill="#212020" d="M 29.550781 184.210938 C 30.410156 186.824219 30.390625 187.277344 30.910156 187.320312 L 34.558594 187.574219 L 35.675781 189.113281 L 34.78125 192.660156 C 34.652344 193.179688 35.078125 193.246094 37.320312 194.910156 C 37.492188 195.035156 37.726562 195.046875 37.902344 194.929688 L 41.007812 192.992188 L 42.816406 193.574219 C 44.179688 196.953125 44.148438 197.296875 44.667969 197.296875 L 47.5625 197.296875 C 48.082031 197.296875 48.050781 196.953125 49.414062 193.574219 L 51.222656 192.992188 C 55.191406 195.480469 54.253906 195.378906 55.929688 194.15625 C 57.015625 193.371094 57.5625 193.167969 57.429688 192.664062 L 56.550781 189.113281 L 57.671875 187.574219 C 61.667969 187.292969 61.589844 187.503906 61.832031 186.808594 C 62.621094 184.386719 62.90625 183.992188 62.507812 183.652344 L 59.707031 181.304688 L 59.707031 179.394531 C 62.359375 177.175781 62.828125 177.023438 62.667969 176.503906 C 61.820312 173.835938 61.839844 173.40625 61.320312 173.378906 L 57.671875 173.132812 C 57.382812 172.738281 57.144531 172.402344 56.550781 171.589844 L 57.429688 168.042969 C 57.484375 167.839844 57.40625 167.628906 57.238281 167.5 C 54.984375 165.855469 54.757812 165.507812 54.3125 165.777344 L 51.222656 167.714844 L 49.414062 167.132812 C 48.050781 163.753906 48.082031 163.410156 47.5625 163.410156 L 44.667969 163.410156 C 44.148438 163.410156 44.179688 163.753906 42.816406 167.132812 L 41.007812 167.714844 L 37.902344 165.777344 C 37.449219 165.480469 37.167969 165.921875 34.980469 167.5 C 34.808594 167.625 34.730469 167.839844 34.78125 168.042969 L 35.675781 171.59375 C 35.117188 172.355469 35.171875 172.292969 34.558594 173.132812 C 31.035156 173.367188 30.625 173.21875 30.453125 173.738281 C 29.578125 176.441406 29.316406 176.71875 29.714844 177.058594 L 32.519531 179.394531 L 32.519531 181.304688 C 29.816406 183.570312 29.390625 183.6875 29.550781 184.210938 Z M 39.554688 183.480469 L 45.929688 181.125 L 49.898438 186.554688 C 46.242188 188.796875 41.421875 187.382812 39.554688 183.480469 Z M 50.738281 185.953125 L 46.683594 180.402344 L 48.613281 173.523438 C 53.878906 175.464844 55.058594 182.382812 50.738281 185.953125 Z M 47.609375 173.238281 L 45.679688 180.113281 L 39.175781 182.515625 C 37.511719 177.164062 42.273438 172.09375 47.609375 173.238281 Z M 47.609375 173.238281 " fill-opacity="1" fill-rule="nonzero"/><path fill="#212020" d="M 36.363281 146.738281 L 36.070312 145.738281 C 33.382812 146.527344 30.777344 147.640625 28.332031 149.046875 L 28.851562 149.945312 C 31.222656 148.582031 33.746094 147.507812 36.363281 146.738281 Z M 36.363281 146.738281 " fill-opacity="1" fill-rule="nonzero"/><path fill="#212020" d="M 26.671875 151.300781 L 26.089844 150.4375 C 25.367188 150.921875 24.648438 151.449219 23.957031 151.992188 L 24.601562 152.808594 C 25.277344 152.285156 25.976562 151.773438 26.671875 151.300781 Z M 26.671875 151.300781 " fill-opacity="1" fill-rule="nonzero"/><path fill="#212020" d="M 40.855469 145.738281 L 40.699219 144.710938 C 39.835938 144.839844 38.96875 145.003906 38.109375 145.203125 L 38.34375 146.21875 C 39.171875 146.03125 40.019531 145.867188 40.855469 145.738281 Z M 40.855469 145.738281 " fill-opacity="1" fill-rule="nonzero"/><path fill="#212020" d="M 46.085938 145.347656 L 46.085938 144.308594 C 45.203125 144.308594 44.242188 144.34375 43.320312 144.414062 L 43.398438 145.449219 C 44.25 145.386719 45.109375 145.347656 46.085938 145.347656 Z M 46.085938 145.347656 " fill-opacity="1" fill-rule="nonzero"/><path fill="#212020" d="M 11.125 179.347656 C 11.152344 178.496094 11.203125 177.636719 11.292969 176.796875 L 10.257812 176.6875 C 10.167969 177.554688 10.109375 178.441406 10.085938 179.316406 Z M 11.125 179.347656 " fill-opacity="1" fill-rule="nonzero"/><path fill="#212020" d="M 23.03125 154.121094 L 22.34375 153.339844 C 20.234375 155.203125 18.34375 157.308594 16.714844 159.601562 L 17.5625 160.203125 C 19.144531 157.976562 20.984375 155.933594 23.03125 154.121094 Z M 23.03125 154.121094 " fill-opacity="1" fill-rule="nonzero"/><path fill="#212020" d="M 16.152344 162.34375 L 15.265625 161.804688 C 14.8125 162.554688 14.375 163.328125 13.980469 164.109375 L 14.90625 164.585938 C 15.289062 163.828125 15.710938 163.074219 16.152344 162.34375 Z M 16.152344 162.34375 " fill-opacity="1" fill-rule="nonzero"/><path fill="#212020" d="M 14.027344 166.4375 L 13.074219 166.023438 C 11.941406 168.605469 11.113281 171.316406 10.621094 174.082031 L 11.644531 174.261719 C 12.125 171.574219 12.925781 168.945312 14.027344 166.4375 Z M 14.027344 166.4375 " fill-opacity="1" fill-rule="nonzero"/><path fill="#212020" d="M 46.105469 211.902344 C 56.800781 211.902344 66.679688 206.539062 72.535156 197.570312 C 82.605469 182.160156 77.453125 160.878906 60.367188 152.21875 C 48.390625 146.132812 33.472656 148.171875 23.535156 158.40625 C 18.191406 163.910156 14.8125 171.324219 14.578125 179.445312 C 14.078125 197.332031 28.523438 211.902344 46.105469 211.902344 Z M 19.898438 195.9375 L 25.390625 192.800781 C 34.445312 207.851562 56.09375 208.578125 66.082031 193.988281 L 71.375 197.4375 C 58.835938 215.972656 31.316406 215.121094 19.898438 195.9375 Z M 71.949219 196.5625 L 66.65625 193.117188 C 73.832031 181.613281 70.195312 165.808594 57.503906 159.035156 L 60.359375 153.382812 C 76.332031 161.824219 81.230469 181.824219 71.949219 196.5625 Z M 56.542969 159.703125 C 56.546875 159.714844 56.558594 159.71875 56.566406 159.726562 C 64.394531 163.683594 69.253906 171.585938 69.253906 180.347656 C 69.253906 193.164062 58.859375 203.492188 46.105469 203.492188 C 33.425781 203.492188 22.976562 193.164062 22.976562 180.347656 C 22.976562 163.089844 41.292969 151.941406 56.542969 159.703125 Z M 56.542969 159.703125 " fill-opacity="1" fill-rule="nonzero"/></svg>